<svg width="184" height="40" viewBox="0 0 184 40" fill="none" xmlns="http://www.w3.org/2000/svg">
<path d="M0 11.554C0 11.2767 0.123074 11.1381 0.364663 11.1381H1.56805C1.65567 11.1305 1.7437 11.1464 1.82332 11.1843C1.91745 11.247 1.99057 11.3373 2.033 11.4431L7.52574 22.4471L7.88129 23.5101L7.77189 22.4333L7.68072 11.554C7.67793 11.4472 7.71176 11.3426 7.77645 11.2582C7.81085 11.217 7.85439 11.1846 7.90352 11.1637C7.95264 11.1428 8.00594 11.134 8.05906 11.1381H9.29436C9.34111 11.1364 9.38773 11.1441 9.43153 11.1608C9.47533 11.1774 9.51546 11.2027 9.54962 11.2351C9.58673 11.2768 9.61482 11.3258 9.63209 11.3792C9.64937 11.4325 9.65543 11.4889 9.6499 11.5448V26.6944C9.65815 26.7483 9.6539 26.8034 9.63749 26.8553C9.62108 26.9073 9.59296 26.9547 9.55536 26.9937C9.51776 27.0327 9.47172 27.0623 9.42088 27.0801C9.37003 27.098 9.31579 27.1036 9.26245 27.0965H8.09097C8.00259 27.0954 7.9155 27.0749 7.8357 27.0364C7.73722 26.9808 7.66252 26.8903 7.62602 26.7822L2.15607 15.9353L1.76862 14.8353L1.89169 15.9445L1.95551 26.6805C1.95551 26.9578 1.83699 27.0965 1.60452 27.0965H0.364663C0.123074 27.0965 0 26.9578 0 26.6805V11.554Z" fill="black"/>
<path d="M22.878 26.6712C22.9036 26.7187 22.9169 26.7719 22.9169 26.826C22.9169 26.8801 22.9036 26.9333 22.878 26.9808C22.8493 27.0189 22.8119 27.0492 22.769 27.0694C22.7261 27.0895 22.6791 27.0988 22.6319 27.0964H21.1869C21.1016 27.0966 21.0179 27.0726 20.9453 27.027C20.9007 26.9996 20.8625 26.9626 20.8334 26.9188C20.8043 26.8749 20.7849 26.8251 20.7767 26.7729L20.0564 23.8243H15.2611L14.5318 26.7729C14.525 26.825 14.5067 26.8749 14.4783 26.9189C14.4499 26.9629 14.4121 26.9998 14.3677 27.027C14.2929 27.0713 14.2081 27.0952 14.1216 27.0964H12.6994C12.6521 27.0992 12.6049 27.0901 12.562 27.0699C12.519 27.0498 12.4817 27.0192 12.4532 26.9808C12.4272 26.9341 12.4117 26.8821 12.4077 26.8286C12.4038 26.7751 12.4115 26.7213 12.4304 26.6712L16.6423 11.4522C16.6631 11.3468 16.7195 11.252 16.8018 11.1842C16.8712 11.1309 16.9564 11.1032 17.0434 11.1056H18.2696C18.3565 11.1039 18.4415 11.1316 18.5112 11.1842C18.5952 11.2513 18.6533 11.3461 18.6753 11.4522L22.878 26.6712ZM15.7352 21.9433H19.5733L17.8274 14.9277L17.6588 13.7399L17.4947 14.9277L15.7352 21.9433Z" fill="black"/>
<path d="M29.6836 11.5216C29.677 11.4642 29.6834 11.4061 29.7024 11.3516C29.7213 11.2972 29.7523 11.2478 29.793 11.2073C29.8573 11.1498 29.9396 11.117 30.0254 11.1149H31.3519C31.4086 11.1087 31.4659 11.1163 31.5191 11.1372C31.5722 11.1581 31.6196 11.1917 31.6573 11.2351C31.7172 11.3334 31.7458 11.4479 31.7394 11.5632V23.4084C31.7461 23.9659 31.6423 24.5192 31.434 25.0352C31.2477 25.498 30.9694 25.917 30.6165 26.266C30.2636 26.6151 29.8437 26.8867 29.3827 27.0641C28.8997 27.2513 28.3865 27.3454 27.8694 27.3414C27.3018 27.3443 26.7393 27.2328 26.2147 27.0132C25.723 26.815 25.2797 26.5106 24.9156 26.1213C24.8367 26.0389 24.7775 25.9393 24.7424 25.8301C24.7197 25.7718 24.7159 25.7077 24.7315 25.6471C24.747 25.5865 24.7812 25.5324 24.829 25.4927L25.5264 24.6424C25.5616 24.5969 25.6078 24.5614 25.6605 24.5396C25.7133 24.5177 25.7707 24.5101 25.8273 24.5176C25.9339 24.5438 26.0297 24.6037 26.1008 24.6886C26.3002 24.8755 26.5261 25.0313 26.7708 25.1507C27.0746 25.2999 27.4088 25.3743 27.7463 25.368C28.0132 25.3722 28.2777 25.317 28.5212 25.2062C28.7544 25.0993 28.9614 24.9415 29.1275 24.744C29.3088 24.5355 29.4496 24.294 29.5423 24.0323C29.6417 23.7348 29.6895 23.4221 29.6836 23.108V11.5216Z" fill="black"/>
<path d="M34.7751 16.2728C34.7761 15.5606 34.8853 14.8529 35.0988 14.1745C35.2892 13.5439 35.5988 12.9568 36.0104 12.4461C36.4239 11.942 36.9444 11.5392 37.5329 11.2676C38.202 10.9835 38.9202 10.8372 39.6457 10.8372C40.3711 10.8372 41.0893 10.9835 41.7584 11.2676C42.3499 11.5411 42.8767 11.9398 43.3037 12.4368C43.7163 12.9469 44.026 13.5342 44.2154 14.1653C44.4282 14.842 44.5343 15.5486 44.5299 16.2589V21.9619C44.5346 22.6738 44.4285 23.3819 44.2154 24.0602C44.0255 24.6897 43.7158 25.2753 43.3037 25.784C42.8826 26.2847 42.3582 26.6854 41.7676 26.9579C41.1033 27.2553 40.383 27.4019 39.6571 27.3877C38.934 27.403 38.2164 27.2562 37.5557 26.9579C36.9618 26.6864 36.4342 26.2856 36.0104 25.784C35.6 25.2742 35.2905 24.6889 35.0988 24.0602C34.8857 23.3819 34.7795 22.6738 34.7843 21.9619L34.7751 16.2728ZM36.8218 22.1006C36.8178 22.5403 36.8792 22.9782 37.0041 23.3993C37.1152 23.7817 37.2995 24.1382 37.5466 24.4484C37.7876 24.7437 38.0894 24.9819 38.4309 25.1462C38.8138 25.3306 39.2332 25.4238 39.6571 25.4189C40.0798 25.4269 40.4988 25.3384 40.8833 25.1601C41.2332 24.9969 41.5442 24.7588 41.7949 24.4622C42.0468 24.1564 42.2331 23.8006 42.3419 23.4178C42.4671 22.9983 42.5286 22.5619 42.5242 22.1237V16.1156C42.5287 15.6801 42.4656 15.2465 42.3373 14.8308C42.2228 14.4489 42.0371 14.0928 41.7904 13.7817C41.5473 13.4832 41.2443 13.2406 40.9015 13.07C40.5166 12.8978 40.1005 12.8089 39.6799 12.8089C39.2592 12.8089 38.8431 12.8978 38.4582 13.07C38.1123 13.2333 37.8082 13.4753 37.5694 13.7771C37.3231 14.0895 37.1388 14.4473 37.0269 14.8308C36.9023 15.2488 36.8408 15.6836 36.8446 16.1202L36.8218 22.1006Z" fill="black"/>
<path d="M46.4263 11.4985C46.4216 11.4469 46.4273 11.395 46.443 11.3458C46.4586 11.2965 46.484 11.251 46.5174 11.2119C46.5482 11.1801 46.5851 11.155 46.6259 11.1383C46.6667 11.1216 46.7105 11.1136 46.7545 11.1149H55.6112C55.6537 11.1146 55.6958 11.1231 55.735 11.1397C55.7741 11.1564 55.8096 11.181 55.8391 11.2119C55.8726 11.251 55.8979 11.2965 55.9136 11.3458C55.9293 11.395 55.9349 11.4469 55.9303 11.4985V12.7417C55.9356 12.7911 55.9301 12.8411 55.9144 12.8882C55.8986 12.9353 55.873 12.9784 55.8391 13.0144C55.7757 13.0694 55.6947 13.0989 55.6112 13.0975H52.1971V26.7174C52.2047 26.8199 52.1719 26.9213 52.1059 26.9993C52.0763 27.0316 52.0403 27.0569 52.0001 27.0737C51.96 27.0904 51.9168 27.0982 51.8734 27.0964H50.5059C50.4611 27.0989 50.4163 27.0915 50.3746 27.0748C50.3329 27.058 50.2953 27.0323 50.2643 26.9993C50.1983 26.9213 50.1656 26.8199 50.1732 26.7174V13.0975H46.7681C46.6817 13.1004 46.5973 13.0707 46.5311 13.0144C46.4973 12.9784 46.4716 12.9353 46.4558 12.8882C46.4401 12.8411 46.4347 12.7911 46.4399 12.7417L46.4263 11.4985Z" fill="black"/>
<path d="M125.353 11.4985C125.349 11.4466 125.355 11.3945 125.372 11.3452C125.388 11.296 125.414 11.2506 125.449 11.2119C125.479 11.1801 125.516 11.155 125.557 11.1383C125.598 11.1216 125.642 11.1136 125.686 11.1149H134.552C134.593 11.1141 134.635 11.1224 134.674 11.1391C134.712 11.1558 134.747 11.1807 134.775 11.2119C134.809 11.2506 134.835 11.296 134.852 11.3452C134.868 11.3945 134.875 11.4466 134.871 11.4985V12.7417C134.875 12.7915 134.869 12.8417 134.853 12.8888C134.836 12.9359 134.81 12.9788 134.775 13.0144C134.714 13.0698 134.634 13.0996 134.552 13.0975H131.133V26.7174C131.142 26.8193 131.111 26.9206 131.046 26.9993C131.017 27.0316 130.981 27.0569 130.941 27.0737C130.9 27.0904 130.857 27.0982 130.814 27.0964H129.424C129.378 27.099 129.333 27.0916 129.29 27.0749C129.248 27.0582 129.209 27.0324 129.177 26.9993C129.113 26.9206 129.082 26.8193 129.091 26.7174V13.0975H125.686C125.599 13.1004 125.515 13.0707 125.449 13.0144C125.414 12.9788 125.388 12.9359 125.371 12.8888C125.354 12.8417 125.348 12.7915 125.353 12.7417V11.4985Z" fill="black"/>
<path d="M145.865 26.6712C145.891 26.7187 145.904 26.7719 145.904 26.826C145.904 26.8801 145.891 26.9333 145.865 26.9808C145.836 27.0192 145.798 27.0498 145.754 27.0699C145.71 27.0901 145.662 27.0991 145.615 27.0964H144.188C144.103 27.095 144.019 27.0711 143.946 27.0271C143.902 26.9998 143.864 26.9629 143.836 26.9189C143.807 26.8749 143.789 26.825 143.782 26.7729L143.039 23.8243H138.267L137.537 26.7729C137.529 26.8251 137.51 26.8749 137.481 26.9188C137.451 26.9627 137.413 26.9996 137.369 27.0271C137.295 27.0711 137.212 27.095 137.127 27.0964H135.7C135.654 27.0992 135.607 27.0901 135.565 27.07C135.523 27.0498 135.486 27.0191 135.459 26.9808C135.432 26.9345 135.416 26.8824 135.412 26.8287C135.408 26.775 135.416 26.7211 135.436 26.6712L139.648 11.4522C139.669 11.3468 139.725 11.252 139.807 11.1842C139.875 11.1309 139.959 11.1031 140.044 11.1056H141.271C141.359 11.1039 141.445 11.1315 141.517 11.1842C141.601 11.2513 141.659 11.3461 141.681 11.4522L145.865 26.6712ZM138.741 21.9433H142.574L140.851 14.9277L140.687 13.7399L140.523 14.9277L138.741 21.9433Z" fill="black"/>
<path d="M148.359 11.6095C148.354 11.4867 148.391 11.3658 148.464 11.2675C148.502 11.2223 148.551 11.187 148.606 11.1645C148.66 11.142 148.719 11.133 148.778 11.1381H150.196C150.474 11.1381 150.615 11.2952 150.615 11.6003V13.5182C150.62 13.7284 150.578 13.937 150.492 14.1283C150.415 14.2878 150.305 14.4282 150.168 14.5396C150.033 14.6489 149.878 14.732 149.713 14.7846C149.538 14.8362 149.357 14.8626 149.175 14.8631C148.942 14.8631 148.828 14.7661 148.828 14.5812V14.119C148.825 14.0804 148.833 14.0418 148.851 14.0075C148.869 13.9732 148.896 13.9446 148.929 13.9249C149 13.8872 149.08 13.8682 149.161 13.8695C149.2 13.8753 149.24 13.8711 149.278 13.8574C149.315 13.8437 149.349 13.8209 149.375 13.7909C149.412 13.7256 149.432 13.6515 149.432 13.576C149.432 13.5006 149.412 13.4264 149.375 13.3611C149.351 13.338 149.322 13.3206 149.291 13.3102C149.259 13.2998 149.226 13.2967 149.193 13.301H148.737C148.64 13.3012 148.546 13.265 148.473 13.1993C148.433 13.1555 148.402 13.1036 148.384 13.0471C148.365 12.9906 148.358 12.9306 148.363 12.8712L148.359 11.6095Z" fill="black"/>
<path d="M154.485 11.5541C154.485 11.2768 154.608 11.1382 154.85 11.1382H156.167C156.409 11.1382 156.527 11.2768 156.527 11.5541V25.1232H161.692C161.736 25.1205 161.781 25.1269 161.823 25.142C161.866 25.157 161.905 25.1805 161.938 25.211C161.973 25.2464 161.999 25.2892 162.016 25.3364C162.033 25.3835 162.039 25.4338 162.034 25.4836V26.7176C162.037 26.7687 162.031 26.8202 162.015 26.8687C161.998 26.9172 161.972 26.9617 161.938 26.9995C161.906 27.0321 161.867 27.0576 161.825 27.0743C161.782 27.091 161.737 27.0986 161.692 27.0966H154.854C154.613 27.0966 154.49 26.9579 154.49 26.6806L154.485 11.5541Z" fill="black"/>
<path d="M165.306 11.5541C165.306 11.2768 165.434 11.1382 165.685 11.1382H166.998C167.235 11.1382 167.353 11.2768 167.353 11.5541V26.6806C167.353 26.9579 167.235 27.0966 166.998 27.0966H165.685C165.434 27.0966 165.306 26.9579 165.306 26.6806V11.5541Z" fill="black"/>
<path d="M174.077 16.0138L173.671 14.558L173.803 15.9999L173.894 26.6943C173.894 26.9623 173.799 27.0964 173.561 27.0964H172.267C172.221 27.1016 172.174 27.094 172.131 27.0745C172.089 27.055 172.052 27.0242 172.025 26.9854C171.975 26.8922 171.951 26.7866 171.957 26.6804V11.4753C171.96 11.378 171.994 11.2842 172.053 11.2073C172.081 11.168 172.119 11.1367 172.163 11.1165C172.207 11.0962 172.255 11.0877 172.303 11.0918H173.862C173.901 11.0878 173.94 11.0938 173.976 11.1091C174.012 11.1245 174.043 11.1487 174.067 11.1796C174.116 11.2574 174.154 11.3413 174.181 11.4291L177.828 21.1992L178.006 22.1235L178.184 21.1992L181.83 11.4384C181.857 11.3505 181.896 11.2666 181.944 11.1888C181.968 11.1579 182 11.1337 182.036 11.1184C182.072 11.103 182.111 11.0971 182.149 11.101H183.69C183.734 11.0981 183.778 11.1058 183.818 11.1234C183.859 11.1411 183.894 11.1683 183.922 11.2027C183.983 11.2786 184.017 11.373 184.018 11.4707V26.6758C184.018 26.9531 183.936 27.0917 183.722 27.0917H182.423C182.204 27.0917 182.095 26.9577 182.095 26.6897L182.195 16.0091L182.313 14.5949L181.94 16.0091L178.845 24.2679C178.822 24.3652 178.776 24.4555 178.712 24.5314C178.684 24.5572 178.651 24.577 178.615 24.5897C178.579 24.6024 178.541 24.6077 178.503 24.6053H177.509C177.472 24.6073 177.436 24.6017 177.401 24.589C177.367 24.5763 177.335 24.5567 177.308 24.5314C177.244 24.4555 177.199 24.3652 177.176 24.2679L174.077 16.0138Z" fill="black"/>
<path d="M120.065 12.0162L118.502 12.2935C115.493 12.8274 112.538 13.6348 109.672 14.7059V6.04044L108.838 6.41941C106.951 7.27903 105.16 8.18024 103.45 9.12767L103.396 0.0647025L102.484 0.651646C98.1603 3.44229 94.1295 6.67423 90.4547 10.2969C86.7935 6.81187 82.8941 3.59338 78.7855 0.665511L77.8738 0V9.3911C76.014 8.3343 74.1102 7.37146 72.1623 6.5026L71.3327 6.13749L71.3691 14.1745C68.5993 13.2011 65.7286 12.5529 62.8132 12.2426L61.4138 12.0994L72.609 26.2877L72.5588 15.9029C74.3832 16.625 76.1587 17.4679 77.8738 18.4263V27.4154L77.9923 27.5771C81.2834 32.0693 89.9396 39.3761 90.2997 39.6857L90.6735 40L91.0518 39.6857C91.4165 39.3807 100.082 32.1479 103.359 27.4801L103.555 27.1473L103.501 18.7776C105.122 17.9107 106.787 17.1286 108.487 16.4344V26.3432L120.065 12.0162ZM109.672 15.9861C112.093 15.0549 114.582 14.3163 117.116 13.777L109.672 23.0202V15.9861ZM64.0895 13.6291C66.5631 13.999 68.9941 14.6182 71.3463 15.4778L71.3828 22.8723L64.0895 13.6291ZM102.224 2.25534V9.81629C99.6523 11.307 97.1932 12.9892 94.8671 14.8492C94.3703 14.2946 93.8552 13.74 93.331 13.1854C92.6685 12.4922 91.9893 11.802 91.2934 11.115C94.6506 7.81199 98.3142 4.84505 102.233 2.25534M82.4002 19.8174C81.2971 19.0657 80.1803 18.3632 79.0499 17.71V11.4754C81.2456 12.8224 83.3613 14.2993 85.3859 15.8983C84.3496 17.1646 83.3544 18.4741 82.4002 19.8267M86.293 16.6378C87.4417 17.5621 88.5721 18.565 89.657 19.5864C88.6025 20.6647 87.5708 21.7986 86.5619 22.9879C85.6503 22.2068 84.5563 21.3657 83.3711 20.5061C84.3101 19.1812 85.2886 17.8918 86.3067 16.6378M93.9783 15.5979C92.7885 16.5962 91.6353 17.6407 90.5094 18.7452C89.385 17.6946 88.2363 16.684 87.0633 15.7135C88.1604 14.4163 89.3015 13.1608 90.4866 11.9469C91.7173 13.1516 92.8812 14.3655 93.9783 15.5887M93.8005 23.8059C92.2233 25.0907 91.1293 26.1167 90.5641 26.6898C90.0217 26.1167 88.9733 25.0537 87.4827 23.7504C88.4764 22.5765 89.4929 21.4597 90.5322 20.3998C91.6596 21.4905 92.749 22.6258 93.8005 23.8059ZM86.7169 24.6655C87.9109 25.6914 89.0433 26.7887 90.1083 27.9515L90.5413 28.446L90.9971 27.9838C92.1301 26.819 93.3344 25.7277 94.6027 24.7163C95.3473 25.5698 96.0675 26.4464 96.7634 27.346L90.71 33.1092L84.5882 27.3692C85.2856 26.4448 85.9876 25.5205 86.7032 24.6701M91.3572 19.5633C92.4603 18.4818 93.5863 17.4604 94.7577 16.4853C95.955 17.8625 97.0657 19.249 98.0898 20.6447L97.7662 20.8619C96.6312 21.6337 95.6147 22.3824 94.7167 23.0757C93.6349 21.8648 92.515 20.6971 91.3572 19.5725M95.6694 15.7504C97.7546 14.088 99.9492 12.5717 102.238 11.212V18.1167C101.089 18.7499 100.032 19.383 99.0699 19.9977C98.0245 18.5773 96.888 17.1616 95.6603 15.7504M79.0407 2.3108C82.757 5.0102 86.2943 7.95435 89.6297 11.1242C89.0143 11.7527 88.4126 12.3859 87.8063 13.0375C87.2001 13.6892 86.6896 14.327 86.1517 14.9786C83.8945 13.1917 81.5253 11.5553 79.059 10.0797L79.0407 2.3108ZM74.2409 15.3021C73.6756 15.0572 73.1058 14.84 72.5361 14.6089L72.5041 7.97689C74.3275 8.81802 76.1128 9.74234 77.8601 10.7499V17.063C76.6613 16.4159 75.4534 15.8244 74.2409 15.3021ZM81.7119 20.7972C80.782 22.156 79.8916 23.5532 79.0407 24.989V19.1057C80.0025 19.6742 80.896 20.2473 81.7119 20.8065M90.6735 38.4471C88.996 37.0098 82.1267 31.0526 79.1547 27.1704C80.2639 25.1985 81.4384 23.3021 82.6783 21.4812C83.8406 22.3131 84.889 23.1358 85.8007 23.8983C84.962 24.9151 84.1415 25.978 83.3255 27.0872L83.0065 27.517L90.71 34.7452L98.3223 27.4523L97.9896 27.0225C97.1873 25.978 96.3562 24.9582 95.4962 23.963C96.3577 23.2975 97.3195 22.5765 98.4135 21.8463L98.7827 21.6014C100.034 23.3534 101.174 25.1842 102.197 27.0826C99.2385 31.0895 92.3555 37.0191 90.6735 38.4471ZM102.256 24.7718C101.509 23.5055 100.684 22.233 99.781 20.9544C100.542 20.4691 101.367 19.97 102.247 19.4708L102.256 24.7718ZM103.505 17.4327L103.46 10.5003C105.059 9.57597 106.732 8.73021 108.474 7.90757V15.145C106.678 15.8614 105.014 16.6424 103.487 17.4327" fill="#AE8C5E"/>
</svg>
